<svg width="20" height="20" viewBox="0 0 20 20" fill="none" xmlns="http://www.w3.org/2000/svg">
<path d="M6.25 3.75C6.25 2.75544 6.64509 1.80161 7.34835 1.09835C8.05161 0.395088 9.00544 0 10 0C10.9946 0 11.9484 0.395088 12.6517 1.09835C13.3549 1.80161 13.75 2.75544 13.75 3.75V10C13.75 10.9946 13.3549 11.9484 12.6517 12.6517C11.9484 13.3549 10.9946 13.75 10 13.75C9.00544 13.75 8.05161 13.3549 7.34835 12.6517C6.64509 11.9484 6.25 10.9946 6.25 10V3.75Z" fill="#B9B9B9"/>
<path d="M4.375 8.125C4.54076 8.125 4.69973 8.19085 4.81694 8.30806C4.93415 8.42527 5 8.58424 5 8.75V10C5 11.3261 5.52678 12.5979 6.46447 13.5355C7.40215 14.4732 8.67392 15 10 15C11.3261 15 12.5979 14.4732 13.5355 13.5355C14.4732 12.5979 15 11.3261 15 10V8.75C15 8.58424 15.0658 8.42527 15.1831 8.30806C15.3003 8.19085 15.4592 8.125 15.625 8.125C15.7908 8.125 15.9497 8.19085 16.0669 8.30806C16.1842 8.42527 16.25 8.58424 16.25 8.75V10C16.25 11.5494 15.6745 13.0436 14.6352 14.1927C13.5958 15.3418 12.1666 16.0638 10.625 16.2188V18.75H14.375C14.5408 18.75 14.6997 18.8158 14.8169 18.9331C14.9342 19.0503 15 19.2092 15 19.375C15 19.5408 14.9342 19.6997 14.8169 19.8169C14.6997 19.9342 14.5408 20 14.375 20H5.625C5.45924 20 5.30027 19.9342 5.18306 19.8169C5.06585 19.6997 5 19.5408 5 19.375C5 19.2092 5.06585 19.0503 5.18306 18.9331C5.30027 18.8158 5.45924 18.75 5.625 18.75H9.375V16.2188C7.83336 16.0638 6.40422 15.3418 5.36485 14.1927C4.32548 13.0436 3.74998 11.5494 3.75 10V8.75C3.75 8.58424 3.81585 8.42527 3.93306 8.30806C4.05027 8.19085 4.20924 8.125 4.375 8.125Z" fill="#B9B9B9"/>
</svg>
