<svg width="25" height="25" viewBox="0 0 25 25" fill="none" xmlns="http://www.w3.org/2000/svg">
<path fill-rule="evenodd" clip-rule="evenodd" d="M14.2883 15.9284C15.5425 15.9284 16.5633 16.9419 16.5633 18.1878V21.392C16.5633 21.6597 16.7779 21.8742 17.0529 21.8805H19.0383C20.6029 21.8805 21.8748 20.6242 21.8748 19.0805V9.99299C21.8675 9.46174 21.6144 8.96174 21.18 8.62945L14.3123 3.15236C13.3904 2.42216 12.1008 2.42216 11.1758 3.15445L4.355 8.62737C3.90396 8.97007 3.65083 9.47007 3.64562 10.0107V19.0805C3.64562 20.6242 4.9175 21.8805 6.48208 21.8805H8.48625C8.76854 21.8805 8.9977 21.6565 8.9977 21.3815C8.9977 21.3211 9.005 21.2607 9.0175 21.2034V18.1878C9.0175 16.9492 10.0321 15.9367 11.2769 15.9284H14.2883ZM19.0383 23.443H17.0342C15.8862 23.4159 15.0008 22.5149 15.0008 21.392V18.1878C15.0008 17.8034 14.681 17.4909 14.2883 17.4909H11.2821C10.8977 17.493 10.58 17.8065 10.58 18.1878V21.3815C10.58 21.4597 10.5696 21.5347 10.5477 21.6055C10.4352 22.6367 9.55395 23.443 8.48625 23.443H6.48208C4.05604 23.443 2.08312 21.4857 2.08312 19.0805V10.0034C2.09354 8.96799 2.57062 8.02007 3.39458 7.39611L10.2019 1.93257C11.7008 0.745073 13.7894 0.745073 15.2852 1.93049L22.1415 7.39924C22.9467 8.01278 23.4237 8.95862 23.4373 9.98153V19.0805C23.4373 21.4857 21.4644 23.443 19.0383 23.443Z" fill="white"/>
</svg>
