<svg width="25" height="25" viewBox="0 0 25 25" fill="none" xmlns="http://www.w3.org/2000/svg">
<path d="M12.4841 2.08334C15.6807 2.08334 18.2528 4.59874 18.2528 7.70418V9.3014C20.0469 9.86142 21.3541 11.4856 21.3541 13.4254V18.568C21.3541 20.9696 19.3632 22.9167 16.9085 22.9167H8.09248C5.63681 22.9167 3.64581 20.9696 3.64581 18.568V13.4254C3.64581 11.4856 4.95409 9.86142 6.74715 9.3014V7.70418C6.75774 4.59874 9.32984 2.08334 12.4841 2.08334ZM12.4947 13.942C11.9866 13.942 11.5738 14.3457 11.5738 14.8425V17.1406C11.5738 17.6478 11.9866 18.0515 12.4947 18.0515C13.0133 18.0515 13.4261 17.6478 13.4261 17.1406V14.8425C13.4261 14.3457 13.0133 13.942 12.4947 13.942ZM12.5053 3.89484C10.3566 3.89484 8.61007 5.59248 8.59949 7.68347V9.07678H16.4005V7.70418C16.4005 5.60283 14.654 3.89484 12.5053 3.89484Z" fill="black"/>
</svg>
