<svg width="25" height="25" viewBox="0 0 25 25" fill="none" xmlns="http://www.w3.org/2000/svg">
<path fill-rule="evenodd" clip-rule="evenodd" d="M10.7545 20.9438C11.2941 21.5448 11.9868 21.875 12.7055 21.875H12.7066C13.4284 21.875 14.1243 21.5448 14.6649 20.9427C14.9545 20.6229 15.4482 20.5969 15.768 20.8854C16.0888 21.174 16.1149 21.6688 15.8263 21.9886C14.9847 22.9229 13.8774 23.4375 12.7066 23.4375H12.7045C11.5368 23.4365 10.4316 22.9219 9.59302 21.9875C9.30447 21.6677 9.33052 21.1729 9.65135 20.8854C9.97218 20.5959 10.4659 20.6219 10.7545 20.9438ZM12.7574 1.04169C17.3876 1.04169 20.498 4.64794 20.498 8.01565C20.498 9.74794 20.9386 10.4823 21.4063 11.2615C21.8688 12.0302 22.3928 12.9031 22.3928 14.5531C22.0293 18.7688 17.6282 19.1125 12.7574 19.1125C7.88656 19.1125 3.48448 18.7688 3.12509 14.6198C3.12198 12.9031 3.64593 12.0302 4.10843 11.2615L4.27171 10.9866C4.67372 10.2957 5.01677 9.54414 5.01677 8.01565C5.01677 4.64794 8.12718 1.04169 12.7574 1.04169ZM12.7574 2.60419C9.11677 2.60419 6.57927 5.45627 6.57927 8.01565C6.57927 10.1813 5.97822 11.1823 5.44697 12.0656C5.02093 12.775 4.68447 13.3354 4.68447 14.5531C4.85843 16.5177 6.15531 17.55 12.7574 17.55C19.323 17.55 20.6605 16.4719 20.8334 14.4854C20.8303 13.3354 20.4938 12.775 20.0678 12.0656C19.5366 11.1823 18.9355 10.1813 18.9355 8.01565C18.9355 5.45627 16.398 2.60419 12.7574 2.60419Z" fill="black"/>
</svg>
