<svg width="25" height="25" viewBox="0 0 25 25" fill="none" xmlns="http://www.w3.org/2000/svg">
<path d="M9.51535 21.6389V18.4537C9.51535 17.6407 10.1793 16.9815 10.9983 16.9815H13.9923C14.3856 16.9815 14.7628 17.1367 15.0409 17.4127C15.319 17.6888 15.4752 18.0633 15.4752 18.4537V21.6389C15.4728 21.9769 15.6063 22.3019 15.8462 22.5418C16.0861 22.7817 16.4125 22.9166 16.753 22.9166H18.7956C19.7496 22.9191 20.6653 22.5446 21.3408 21.8758C22.0162 21.207 22.3958 20.2989 22.3958 19.3519V10.278C22.3958 9.51296 22.0542 8.78732 21.4631 8.29651L14.5146 2.78734C13.3059 1.8214 11.574 1.85259 10.4014 2.86142L3.61143 8.29651C2.9924 8.77285 2.62241 9.50064 2.60413 10.278V19.3426C2.60413 21.3165 4.21598 22.9166 6.20431 22.9166H8.20026C8.90749 22.9167 9.48225 22.3502 9.48737 21.6481L9.51535 21.6389Z" fill="#1796DE"/>
</svg>
