<svg width="25" height="25" viewBox="0 0 25 25" fill="none" xmlns="http://www.w3.org/2000/svg">
<path d="M9.53872 21.6369V18.4423C9.53871 17.6298 10.2011 16.9696 11.0218 16.9641H14.0282C14.8528 16.9641 15.5213 17.626 15.5213 18.4423V18.4423V21.6468C15.5211 22.3366 16.0773 22.9005 16.774 22.9166H18.7782C20.7761 22.9166 22.3958 21.3132 22.3958 19.3352V19.3352V10.2477C22.3851 9.46959 22.0161 8.73889 21.3937 8.26356L14.5393 2.79717C13.3384 1.84536 11.6314 1.84536 10.4306 2.79717L3.60624 8.27348C2.98148 8.74688 2.61182 9.4788 2.60413 10.2576V19.3352C2.60413 21.3132 4.22379 22.9166 6.22174 22.9166H8.22596C8.93991 22.9166 9.51868 22.3437 9.51868 21.6369V21.6369" stroke="#1796DE" stroke-width="1.5" stroke-linecap="round" stroke-linejoin="round"/>
</svg>
