<svg width="25" height="25" viewBox="0 0 25 25" fill="none" xmlns="http://www.w3.org/2000/svg">
<path fill-rule="evenodd" clip-rule="evenodd" d="M9.27079 2.08331H15.6979C18.5208 2.08331 20.802 3.1979 20.8333 6.03123V21.8437C20.8333 22.0208 20.7916 22.1979 20.7083 22.3541C20.5729 22.6041 20.3437 22.7916 20.0625 22.875C19.7916 22.9583 19.4895 22.9166 19.2395 22.7708L12.4895 19.3958L5.72913 22.7708C5.57392 22.8531 5.39579 22.9062 5.21871 22.9062C4.63538 22.9062 4.16663 22.4271 4.16663 21.8437V6.03123C4.16663 3.1979 6.45829 2.08331 9.27079 2.08331ZM8.56246 10.0208H16.4062C16.8541 10.0208 17.2187 9.65519 17.2187 9.1979C17.2187 8.73956 16.8541 8.37498 16.4062 8.37498H8.56246C8.11454 8.37498 7.74996 8.73956 7.74996 9.1979C7.74996 9.65519 8.11454 10.0208 8.56246 10.0208Z" fill="#1796DE"/>
</svg>
