<svg width="25" height="25" viewBox="0 0 25 25" fill="none" xmlns="http://www.w3.org/2000/svg">
<path d="M13.0945 2.18704L20.0085 4.50678C20.7824 4.76521 21.3057 5.47615 21.3099 6.27289L21.354 13.1902C21.3676 15.2873 20.6031 17.321 19.2031 18.9145C18.5592 19.6459 17.7339 20.2741 16.68 20.8359L12.9634 22.8226C12.847 22.8839 12.7191 22.9156 12.5901 22.9166C12.4611 22.9176 12.3321 22.887 12.2168 22.8267L8.46562 20.8859C7.40016 20.3333 6.5675 19.7143 5.91732 18.9932C4.49425 17.416 3.70354 15.3915 3.68991 13.2914L3.64584 6.37913C3.64167 5.58136 4.15552 4.86532 4.92526 4.59667L11.813 2.19419C12.222 2.04914 12.6782 2.04608 13.0945 2.18704ZM16.4008 9.60276C16.0915 9.30552 15.5933 9.30756 15.2882 9.60889L11.7793 13.0676L10.3426 11.6865C10.0332 11.3893 9.53612 11.3924 9.2299 11.6937C8.92474 11.995 8.92788 12.4792 9.23725 12.7764L11.2329 14.6968C11.3881 14.8459 11.5894 14.9195 11.7908 14.9175C11.9921 14.9164 12.1924 14.8408 12.3455 14.6896L16.4071 10.6855C16.7123 10.3842 16.7091 9.90001 16.4008 9.60276Z" fill="black"/>
</svg>
