<svg width="15" height="15" viewBox="0 0 15 15" fill="none" xmlns="http://www.w3.org/2000/svg">
<path d="M14.1667 6.99167C14.3215 6.8763 14.4364 6.71536 14.4952 6.53142C14.554 6.34748 14.5537 6.14975 14.4944 5.96596C14.4352 5.78218 14.3198 5.62155 14.1647 5.5066C14.0095 5.39165 13.8223 5.32815 13.6292 5.325L9.87918 5.18333C9.86074 5.18206 9.84306 5.17548 9.82828 5.16439C9.81349 5.1533 9.80223 5.13818 9.79584 5.12083L8.50001 1.62083C8.4349 1.44277 8.31665 1.28901 8.16126 1.18037C8.00587 1.07174 7.82086 1.01348 7.63126 1.01348C7.44166 1.01348 7.25665 1.07174 7.10126 1.18037C6.94587 1.28901 6.82762 1.44277 6.76251 1.62083L5.47084 5.13333C5.46446 5.15068 5.4532 5.1658 5.43841 5.17689C5.42362 5.18798 5.40595 5.19456 5.38751 5.19583L1.63751 5.3375C1.44443 5.34065 1.25718 5.40415 1.10201 5.5191C0.946839 5.63405 0.831535 5.79468 0.772264 5.97846C0.712993 6.16225 0.712727 6.35998 0.771504 6.54392C0.83028 6.72786 0.945151 6.8888 1.10001 7.00417L4.04168 9.31667C4.0564 9.32825 4.0674 9.3439 4.07333 9.36167C4.07925 9.37944 4.07984 9.39856 4.07501 9.41667L3.06251 13.0042C3.01004 13.1869 3.01513 13.3813 3.07707 13.561C3.13901 13.7406 3.2548 13.8969 3.4087 14.0084C3.56259 14.12 3.74711 14.1814 3.93716 14.1844C4.1272 14.1874 4.31355 14.1317 4.47084 14.025L7.57918 11.9417C7.59449 11.9311 7.61265 11.9254 7.63126 11.9254C7.64987 11.9254 7.66803 11.9311 7.68334 11.9417L10.7917 14.025C10.9468 14.1353 11.1325 14.1946 11.3229 14.1946C11.5133 14.1946 11.699 14.1353 11.8542 14.025C12.0081 13.9145 12.124 13.759 12.1859 13.5799C12.2479 13.4009 12.2528 13.207 12.2 13.025L11.1792 9.425C11.1738 9.40693 11.1741 9.38763 11.18 9.36973C11.186 9.35183 11.1973 9.33621 11.2125 9.325L14.1667 6.99167Z" fill="#F1BD1E"/>
</svg>
