<svg width="25" height="25" viewBox="0 0 25 25" fill="none" xmlns="http://www.w3.org/2000/svg">
<path fill-rule="evenodd" clip-rule="evenodd" d="M14.2883 15.9285C15.5425 15.9285 16.5633 16.942 16.5633 18.1878V21.392C16.5633 21.6597 16.7779 21.8743 17.0529 21.8806H19.0383C20.6029 21.8806 21.8748 20.6243 21.8748 19.0806V9.99305C21.8675 9.4618 21.6144 8.9618 21.18 8.62951L14.3123 3.15243C13.3904 2.42222 12.1008 2.42222 11.1758 3.15451L4.35501 8.62743C3.90396 8.97013 3.65084 9.47013 3.64563 10.0108V19.0806C3.64563 20.6243 4.9175 21.8806 6.48209 21.8806H8.48626C8.76855 21.8806 8.99771 21.6566 8.99771 21.3816C8.99771 21.3212 9.005 21.2608 9.0175 21.2035V18.1878C9.0175 16.9493 10.0321 15.9368 11.2769 15.9285H14.2883ZM19.0383 23.4431H17.0342C15.8863 23.416 15.0008 22.5149 15.0008 21.392V18.1878C15.0008 17.8035 14.681 17.491 14.2883 17.491H11.2821C10.8977 17.4931 10.58 17.8066 10.58 18.1878V21.3816C10.58 21.4597 10.5696 21.5347 10.5477 21.6056C10.4352 22.6368 9.55396 23.4431 8.48626 23.4431H6.48209C4.05605 23.4431 2.08313 21.4858 2.08313 19.0806V10.0035C2.09355 8.96805 2.57063 8.02013 3.39459 7.39618L10.2019 1.93263C11.7008 0.745134 13.7894 0.745134 15.2852 1.93055L22.1415 7.3993C22.9467 8.01284 23.4238 8.95868 23.4373 9.98159V19.0806C23.4373 21.4858 21.4644 23.4431 19.0383 23.4431Z" fill="black"/>
</svg>
