<svg width="25" height="25" viewBox="0 0 25 25" fill="none" xmlns="http://www.w3.org/2000/svg">
<path d="M18.75 3.125C19.0051 3.12503 19.2514 3.2187 19.4421 3.38825C19.6327 3.55779 19.7545 3.7914 19.7844 4.04479L19.7917 4.16667V20.8333C19.7914 21.0988 19.6897 21.3542 19.5075 21.5473C19.3252 21.7403 19.0761 21.8565 18.811 21.8721C18.546 21.8876 18.285 21.8014 18.0814 21.631C17.8778 21.4606 17.747 21.2188 17.7156 20.9552L17.7083 20.8333V15.625H16.6667C16.4115 15.625 16.1653 15.5313 15.9746 15.3618C15.784 15.1922 15.6621 14.9586 15.6323 14.7052L15.625 14.5833V8.33333C15.625 6.03125 17.1875 3.125 18.75 3.125ZM12.5 3.125C12.7551 3.12503 13.0014 3.2187 13.1921 3.38825C13.3827 3.55779 13.5045 3.7914 13.5344 4.04479L13.5417 4.16667V9.375C13.5415 10.2988 13.2346 11.1964 12.6689 11.9269C12.1033 12.6573 11.3111 13.1791 10.4167 13.4104V20.8333C10.4164 21.0988 10.3147 21.3542 10.1325 21.5473C9.95019 21.7403 9.70109 21.8565 9.43605 21.8721C9.17101 21.8876 8.91002 21.8014 8.70643 21.631C8.50283 21.4606 8.37199 21.2188 8.34063 20.9552L8.33334 20.8333V13.4104C7.47443 13.1884 6.70876 12.6981 6.14767 12.011C5.58659 11.3238 5.25935 10.4755 5.21354 9.58958L5.20834 9.375V4.16667C5.20863 3.90117 5.31029 3.6458 5.49255 3.45274C5.67481 3.25968 5.92391 3.14351 6.18896 3.12795C6.454 3.11239 6.71498 3.19862 6.91858 3.36903C7.12217 3.53943 7.25302 3.78115 7.28438 4.04479L7.29167 4.16667V9.375C7.29168 9.74069 7.38795 10.0999 7.5708 10.4166C7.75365 10.7333 8.01664 10.9963 8.33334 11.1792V4.16667C8.33363 3.90117 8.43529 3.6458 8.61755 3.45274C8.79981 3.25968 9.04891 3.14351 9.31396 3.12795C9.579 3.11239 9.83998 3.19862 10.0436 3.36903C10.2472 3.53943 10.378 3.78115 10.4094 4.04479L10.4167 4.16667L10.4177 11.1792C10.7084 11.0111 10.9542 10.7753 11.1341 10.4919C11.314 10.2084 11.4227 9.88561 11.451 9.55104L11.4583 9.375V4.16667C11.4583 3.8904 11.5681 3.62545 11.7634 3.4301C11.9588 3.23475 12.2237 3.125 12.5 3.125V3.125Z" fill="white"/>
</svg>
