<svg width="25" height="25" viewBox="0 0 25 25" fill="none" xmlns="http://www.w3.org/2000/svg">
<path fill-rule="evenodd" clip-rule="evenodd" d="M20.6666 18.9511C20.6666 22.3845 15.9582 22.7813 12.4176 22.7813L12.1642 22.7811C9.90844 22.7756 4.16656 22.6332 4.16656 18.9303C4.16656 15.567 8.68568 15.1176 12.1994 15.1006L12.671 15.1003C14.9266 15.1058 20.6666 15.2482 20.6666 18.9511ZM12.4176 16.6626C7.97906 16.6626 5.72906 17.4251 5.72906 18.9303C5.72906 20.449 7.97906 21.2188 12.4176 21.2188C16.8551 21.2188 19.1041 20.4563 19.1041 18.9511C19.1041 17.4324 16.8551 16.6626 12.4176 16.6626ZM12.4176 2.08301C15.4676 2.08301 17.9478 4.56426 17.9478 7.61426C17.9478 10.6643 15.4676 13.1445 12.4176 13.1445H12.3843C9.34052 13.1351 6.8749 10.6528 6.88528 7.61113C6.88528 4.56426 9.36656 2.08301 12.4176 2.08301ZM12.4176 3.57051C10.1874 3.57051 8.37279 5.38405 8.37279 7.61426C8.36552 9.83718 10.1666 11.6497 12.3874 11.658L12.4176 12.4018V11.658C14.6468 11.658 16.4603 9.84343 16.4603 7.61426C16.4603 5.38405 14.6468 3.57051 12.4176 3.57051Z" fill="white"/>
</svg>
