<svg width="25" height="25" viewBox="0 0 25 25" fill="none" xmlns="http://www.w3.org/2000/svg">
<path d="M17.0208 2.08344C20.552 2.08344 22.9166 4.56156 22.9166 8.24906V16.7595C22.9166 20.4376 20.552 22.9168 17.0208 22.9168H7.9895C4.45825 22.9168 2.08325 20.4376 2.08325 16.7595V8.24906C2.08325 4.56156 4.45825 2.08344 7.9895 2.08344H17.0208ZM12.1353 7.2074C11.7083 7.2074 11.3541 7.56261 11.3541 7.98865V13.2501C11.3541 13.5209 11.4999 13.7814 11.7395 13.9168L15.8228 16.3543C15.9478 16.4376 16.0937 16.4689 16.2291 16.4689C16.4895 16.4689 16.7499 16.3334 16.8958 16.0834C17.1249 15.7178 16.9999 15.2386 16.6249 15.0105L12.9166 12.8022V7.98865C12.9166 7.56261 12.5728 7.2074 12.1353 7.2074Z" fill="black"/>
</svg>
