<svg width="25" height="25" viewBox="0 0 25 25" fill="none" xmlns="http://www.w3.org/2000/svg">
<path d="M15.019 5.71868C14.5232 5.62707 14.0678 5.94352 13.9733 6.42757C13.8789 6.91161 14.1964 7.3842 14.6788 7.47893C16.1311 7.76207 17.2526 8.88629 17.5368 10.3436V10.3447C17.6177 10.7642 17.987 11.0692 18.4124 11.0692C18.4694 11.0692 18.5265 11.064 18.5846 11.0536C19.067 10.9567 19.3844 10.4852 19.29 10.0001C18.8657 7.82348 17.1903 6.14234 15.019 5.71868Z" fill="black"/>
<path d="M14.9542 2.09159C14.7219 2.05828 14.4884 2.12698 14.3027 2.2748C14.1119 2.42469 13.9926 2.64121 13.9666 2.88375C13.9116 3.37404 14.2654 3.81749 14.7551 3.87266C18.1318 4.24948 20.7564 6.87997 21.1361 10.2672C21.1869 10.7211 21.5676 11.0636 22.022 11.0636C22.0563 11.0636 22.0895 11.0615 22.1237 11.0573C22.3613 11.0313 22.5729 10.9137 22.7223 10.7263C22.8706 10.5389 22.938 10.3057 22.9111 10.0674C22.438 5.8411 19.1671 2.56106 14.9542 2.09159Z" fill="black"/>
<path fill-rule="evenodd" clip-rule="evenodd" d="M11.4914 13.5129C15.6467 17.667 16.5893 12.8612 19.235 15.505C21.7857 18.055 23.2517 18.5658 20.02 21.7966C19.6152 22.1219 17.0433 26.0357 8.00477 16.9997C-1.03489 7.9625 2.87663 5.38796 3.20203 4.98328C6.44151 1.74359 6.94359 3.21811 9.49424 5.76805C12.1399 8.41302 7.33608 9.35877 11.4914 13.5129Z" fill="black"/>
</svg>
