<svg width="25" height="25" viewBox="0 0 25 25" fill="none" xmlns="http://www.w3.org/2000/svg">
<path d="M8.85416 16.6667C9.71711 16.6667 10.4167 15.9671 10.4167 15.1042C10.4167 14.2412 9.71711 13.5417 8.85416 13.5417C7.99122 13.5417 7.29166 14.2412 7.29166 15.1042C7.29166 15.9671 7.99122 16.6667 8.85416 16.6667Z" fill="white"/>
<path d="M16.1458 16.6667C17.0088 16.6667 17.7083 15.9671 17.7083 15.1042C17.7083 14.2412 17.0088 13.5417 16.1458 13.5417C15.2829 13.5417 14.5833 14.2412 14.5833 15.1042C14.5833 15.9671 15.2829 16.6667 16.1458 16.6667Z" fill="white"/>
<path d="M19.6562 3.47918C19.3426 3.08123 18.9505 2.75198 18.5043 2.51187C18.0582 2.27175 17.5674 2.1259 17.0625 2.08334H7.9375C7.42877 2.12072 6.93372 2.26535 6.48489 2.50772C6.03605 2.75009 5.6436 3.08471 5.33333 3.48959C4.64048 4.24941 4.22874 5.2236 4.16666 6.25001V18.75C4.16666 19.0263 4.27641 19.2912 4.47176 19.4866C4.66711 19.6819 4.93206 19.7917 5.20833 19.7917H7.29166L5.20833 22.9167H7.625L8.33333 21.875H16.6667L17.375 22.9167H19.7917L17.7083 19.7917H19.7917C20.0679 19.7917 20.3329 19.6819 20.5282 19.4866C20.7236 19.2912 20.8333 19.0263 20.8333 18.75V6.25001C20.7856 5.2152 20.3679 4.23192 19.6562 3.47918ZM7.9375 4.16668H17.0208C17.4374 4.26778 17.8058 4.51088 18.0625 4.85418C18.1569 4.96647 18.2439 5.08477 18.3229 5.20834H6.65625C6.73147 5.07895 6.81866 4.95689 6.91666 4.84376C7.16224 4.50035 7.52561 4.25934 7.9375 4.16668ZM6.25 8.33334V7.29168H18.75V10.4167H6.25V8.33334ZM18.75 17.7083H6.25V12.5H18.75V17.7083Z" fill="white"/>
</svg>
