<svg width="25" height="25" viewBox="0 0 25 25" fill="none" xmlns="http://www.w3.org/2000/svg">
<path d="M11.9716 2.08334C14.5576 2.08334 16.6667 4.15626 16.6667 6.70834V11.6979H10.3077C9.85197 11.6979 9.49162 12.0521 9.49162 12.5C9.49162 12.9375 9.85197 13.3021 10.3077 13.3021H16.6667V18.2813C16.6667 20.8333 14.5576 22.9167 11.9504 22.9167H6.78904C4.19245 22.9167 2.08337 20.8438 2.08337 18.2917V6.71876C2.08337 4.15626 4.20304 2.08334 6.79964 2.08334H11.9716ZM19.3127 8.90647C19.6252 8.58355 20.1357 8.58355 20.4482 8.89605L23.4898 11.9273C23.6461 12.0836 23.7294 12.2815 23.7294 12.5002C23.7294 12.7086 23.6461 12.9169 23.4898 13.0627L20.4482 16.094C20.2919 16.2502 20.0836 16.3336 19.8857 16.3336C19.6773 16.3336 19.469 16.2502 19.3127 16.094C19.0002 15.7815 19.0002 15.2711 19.3127 14.9586L20.9794 13.3023H16.6669V11.6981H20.9794L19.3127 10.0419C19.0002 9.72939 19.0002 9.21897 19.3127 8.90647Z" fill="black"/>
</svg>
