<svg width="25" height="25" viewBox="0 0 25 25" fill="none" xmlns="http://www.w3.org/2000/svg">
<path d="M9.5154 21.6389V18.4537C9.5154 17.6407 10.1794 16.9815 10.9984 16.9815H13.9923C14.3856 16.9815 14.7628 17.1367 15.0409 17.4127C15.319 17.6888 15.4753 18.0633 15.4753 18.4537V21.6389C15.4728 21.9769 15.6063 22.3019 15.8462 22.5418C16.0861 22.7817 16.4126 22.9166 16.7531 22.9166H18.7957C19.7496 22.9191 20.6654 22.5446 21.3408 21.8758C22.0162 21.207 22.3958 20.2989 22.3958 19.3519V10.278C22.3958 9.51296 22.0542 8.78731 21.4631 8.29651L14.5146 2.78734C13.3059 1.8214 11.5741 1.85259 10.4015 2.86142L3.61148 8.29651C2.99244 8.77285 2.62246 9.50064 2.60417 10.278V19.3426C2.60417 21.3165 4.21603 22.9166 6.20435 22.9166H8.20031C8.90753 22.9166 9.48229 22.3502 9.48742 21.6481L9.5154 21.6389Z" fill="black"/>
</svg>
