<svg width="280" height="52" viewBox="0 0 280 52" fill="none" xmlns="http://www.w3.org/2000/svg">
<path d="M17.7 50.0938C14.6583 50.0938 12.075 49.625 9.95 48.6875C3.40833 45.8333 0.137497 39.25 0.137497 28.9375C0.137497 24.9375 0.606247 21.375 1.54375 18.25C3.04375 13.25 5.53333 9.1875 9.0125 6.0625C12.9083 2.54167 17.6792 0.78125 23.325 0.78125C25.4917 0.78125 27.3667 1.08333 28.95 1.6875C31.8875 2.83333 34.0333 4.72917 35.3875 7.375C36.3875 9.35417 36.8875 11.3854 36.8875 13.4688C36.8875 15.3021 36.5542 16.8438 35.8875 18.0938C35.3667 19.0521 34.7521 19.5312 34.0437 19.5312C32.9812 19.5312 32.3042 18.8854 32.0125 17.5938C31.2625 14.4062 30.2937 12.0833 29.1062 10.625C27.9396 9.14583 26.4708 8.40625 24.7 8.40625C22.4708 8.40625 20.3667 10.0208 18.3875 13.25C16.4292 16.4792 15.1792 20.7708 14.6375 26.125C14.5542 27 14.5125 27.9896 14.5125 29.0938C14.5125 32.8021 14.9292 35.8333 15.7625 38.1875C16.7625 41.0417 18.325 42.4688 20.45 42.4688C22.6167 42.4688 24.3042 41.2917 25.5125 38.9375C26.5333 36.9375 27.1583 34.4479 27.3875 31.4688L24.6375 31.5C23.5958 31.5 22.7625 31.3438 22.1375 31.0312C21.5333 30.7188 21.2312 30.0938 21.2312 29.1562C21.2312 28.2604 21.5437 27.6042 22.1687 27.1875C22.8146 26.7708 23.7 26.4688 24.825 26.2812C27.575 25.8229 29.7521 25.5938 31.3562 25.5938C32.9812 25.5938 34.1271 25.9688 34.7937 26.7188C35.4604 27.4479 35.8354 28.4479 35.9187 29.7188C35.9604 30.1979 35.9812 30.7083 35.9812 31.25C35.9812 37.6875 33.7104 42.7292 29.1687 46.375C26.0646 48.8542 22.2417 50.0938 17.7 50.0938ZM55.6187 43.5C56.8896 43.5 58.0042 43.125 58.9625 42.375C59.9417 41.6042 60.7646 40.5938 61.4312 39.3438C62.1187 38.0729 62.6604 36.6562 63.0562 35.0938C60.6604 34.0104 58.65 32.4479 57.025 30.4062C55.4 28.3438 54.3375 26.1042 53.8375 23.6875C52.275 27.6458 51.4937 31.6146 51.4937 35.5938C51.4937 36.4896 51.5667 37.5417 51.7125 38.75C51.8792 39.9583 52.275 41.0521 52.9 42.0312C53.5458 43.0104 54.4521 43.5 55.6187 43.5ZM63.775 30.6562C63.8583 29.6562 63.9 28.6875 63.9 27.75C63.9 23.4583 63.1708 20.3646 61.7125 18.4688C61.15 17.7604 60.6396 17.4062 60.1812 17.4062C59.2437 17.4062 58.775 18.5729 58.775 20.9062C58.775 22.9271 59.2437 24.8125 60.1812 26.5625C61.1396 28.2917 62.3375 29.6562 63.775 30.6562ZM53.275 50.0312C48.275 50.0312 44.6083 48.3958 42.275 45.125C40.3375 42.4375 39.3687 38.7604 39.3687 34.0938C39.3687 27.5729 40.8792 22.1979 43.9 17.9688C46.5458 14.2188 49.9833 12.3438 54.2125 12.3438C55.4625 12.3438 56.2958 12.6146 56.7125 13.1562C57.8792 12.6146 59.0146 12.3438 60.1187 12.3438C63.6604 12.3438 66.3792 14.2083 68.275 17.9375C69.7125 20.7917 70.4312 24.1146 70.4312 27.9062C70.4312 29.1354 70.3271 30.6667 70.1187 32.5C73.4312 32.25 75.8583 30.1875 77.4 26.3125C77.8375 25.2292 78.2021 24.4375 78.4937 23.9375C78.9521 23.1667 79.4417 22.7812 79.9625 22.7812C80.3583 22.7812 80.5562 23.0625 80.5562 23.625C80.5562 24.4375 80.3375 25.4896 79.9 26.7812C78.8583 29.9479 77.4 32.2812 75.525 33.7812C73.6708 35.2812 71.5979 36.0938 69.3062 36.2188C68.5979 38.7396 67.5354 41.0417 66.1187 43.125C62.9729 47.7292 58.6917 50.0312 53.275 50.0312ZM102.331 50.0625C100.06 50.0625 98.4771 49.0104 97.5812 46.9062C96.6854 44.8021 96.2375 41.375 96.2375 36.625C96.2375 27.9375 97.175 19.875 99.05 12.4375C99.4458 10.8333 100.04 9.42708 100.831 8.21875H96.8312C94.5604 8.21875 92.8625 8.15625 91.7375 8.03125C90.2167 7.86458 89.4562 7.17708 89.4562 5.96875C89.4562 4.96875 89.8 4.13542 90.4875 3.46875C91.7375 2.23958 94.8417 1.45833 99.8 1.125C103.092 0.895833 107.665 0.78125 113.519 0.78125C115.123 0.78125 116.612 0.864583 117.987 1.03125C120.967 1.36458 122.456 2.27083 122.456 3.75C122.456 5.375 121.425 6.47917 119.362 7.0625C117.612 7.54167 114.592 7.78125 110.3 7.78125C111.071 9.03125 111.54 10.5417 111.706 12.3125C111.935 14.6667 112.05 17.1875 112.05 19.875C112.05 28.6667 111.092 36.625 109.175 43.75C108.862 44.875 108.487 45.9167 108.05 46.875C107.092 48.9792 105.185 50.0417 102.331 50.0625ZM121.594 49.9062C119.385 49.9062 117.948 49.125 117.281 47.5625C116.615 46 116.281 43.125 116.281 38.9375C116.281 36.5833 116.406 33.6875 116.656 30.25C117.281 21.8542 118.552 16.4583 120.469 14.0625C121.469 12.8125 123.042 12.1875 125.188 12.1875C126.854 12.1875 128.135 12.625 129.031 13.5C129.781 14.2083 130.26 15.1562 130.469 16.3438C130.635 17.3438 130.719 18.6146 130.719 20.1562C132.01 17.8021 133.479 15.9479 135.125 14.5938C136.792 13.2396 138.5 12.5625 140.25 12.5625C141.792 12.5625 142.969 12.9583 143.781 13.75C145.115 15.0833 145.781 17.1354 145.781 19.9062C145.781 21.4479 145.583 23.1458 145.188 25C144.604 27.8125 144.062 29.5417 143.562 30.1875C144.375 30.1875 145.302 29.875 146.344 29.25C147.406 28.625 148.312 27.875 149.062 27C149.833 26.125 150.438 25.2604 150.875 24.4062C151.125 23.9271 151.344 23.5729 151.531 23.3438C151.74 23.0938 151.917 22.9375 152.062 22.875C152.229 22.8125 152.396 22.7812 152.562 22.7812C152.938 22.7812 153.125 23.0312 153.125 23.5312C153.125 25.2396 152.469 27.0104 151.156 28.8438C149.99 30.4688 148.479 31.8542 146.625 33C144.771 34.1458 142.979 34.7188 141.25 34.7188C140.062 34.7188 139.104 34.375 138.375 33.6875C136.958 32.3958 136.25 30.1458 136.25 26.9375C136.25 24.3125 136.719 21.8438 137.656 19.5312C136.74 19.5312 135.875 20.0729 135.062 21.1562C133.583 23.1146 132.208 26.3021 130.938 30.7188C130 33.9896 129.302 37.1354 128.844 40.1562C128.281 43.9896 127.531 46.5104 126.594 47.7188C125.448 49.1771 123.781 49.9062 121.594 49.9062ZM176.044 50.5C174.565 50.5 173.325 50.0833 172.325 49.25C171.346 48.4375 170.565 47.3333 169.981 45.9375C169.398 44.5208 168.981 42.9271 168.731 41.1562C166.419 46.5312 163.012 49.2188 158.512 49.2188C154.637 49.2188 151.908 47.6875 150.325 44.625C149.096 42.2083 148.481 39.2188 148.481 35.6562C148.481 34.6979 148.523 33.7292 148.606 32.75C149.065 27.5208 150.492 23.1354 152.887 19.5938C155.575 15.6562 159.148 13.6875 163.606 13.6875C164.898 13.6875 166.023 13.875 166.981 14.25C167.96 14.625 168.783 15.1042 169.45 15.6875C170.137 16.25 170.669 16.8438 171.044 17.4688C171.46 16.4271 172.065 15.5833 172.856 14.9375C173.669 14.2917 174.867 13.9688 176.45 13.9688C178.533 13.9688 179.898 14.5104 180.544 15.5938C181.585 17.4271 182.106 20.9167 182.106 26.0625C182.106 31.9792 181.325 37.5521 179.762 42.7812C181.679 41.1354 183.731 38.5729 185.919 35.0938C188.127 31.5938 189.721 28.6667 190.7 26.3125C191.137 25.2292 191.502 24.4375 191.794 23.9375C192.106 23.4375 192.367 23.125 192.575 23C192.804 22.8542 193.023 22.7812 193.231 22.7812C193.648 22.7812 193.856 23.0833 193.856 23.6875C193.856 24.3958 193.648 25.4271 193.231 26.7812C192.377 29.5521 191.242 32.5521 189.825 35.7812C188.033 39.8438 186.085 43.1667 183.981 45.75C181.419 48.9167 178.773 50.5 176.044 50.5ZM161.481 42.6875C163.002 42.6875 164.627 40.4375 166.356 35.9375C168.085 31.4375 169.221 26.7396 169.762 21.8438C168.846 20.6562 167.742 20.0625 166.45 20.0625C164.346 20.0625 162.648 21.3333 161.356 23.875C160.19 26.125 159.377 28.8542 158.919 32.0625C158.71 33.5833 158.606 34.9792 158.606 36.25C158.606 40.5417 159.565 42.6875 161.481 42.6875ZM200.994 51.0625C199.723 51.0625 198.483 50.6458 197.275 49.8125C195.233 48.4167 193.775 46.7917 192.9 44.9375C191.046 41.0208 189.9 37.0104 189.462 32.9062C189.275 31.2188 189.181 29.5104 189.181 27.7812C189.181 23.4271 189.629 19.8854 190.525 17.1562C190.837 16.1979 191.348 15.4167 192.056 14.8125C192.765 14.2083 193.827 13.9062 195.244 13.9062C198.16 13.9062 200.067 15.8854 200.962 19.8438C201.942 24.2396 202.431 29.2292 202.431 34.8125C202.431 37.6042 202.296 40.4479 202.025 43.3438C203.796 42.8229 205.546 39.2083 207.275 32.5C206.462 30.9375 206.056 29.0833 206.056 26.9375C206.056 23.6667 206.712 20.5938 208.025 17.7188C209.4 14.6771 211.494 13.1562 214.306 13.1562C215.202 13.1562 215.994 13.2917 216.681 13.5625C217.91 14.0417 218.525 15.2812 218.525 17.2812C218.525 20.6979 217.421 25.7708 215.212 32.5C218.754 32.4583 221.337 30.3958 222.962 26.3125C223.4 25.2292 223.775 24.4375 224.087 23.9375C224.546 23.1667 225.025 22.7812 225.525 22.7812C225.921 22.7812 226.119 23.0625 226.119 23.625C226.119 24.4375 225.9 25.4896 225.462 26.7812C224.337 30.1562 222.744 32.5833 220.681 34.0625C218.619 35.5208 216.348 36.25 213.869 36.25C212.16 40.625 210.317 44.0729 208.337 46.5938C205.983 49.5729 203.535 51.0625 200.994 51.0625ZM237.912 29.5C239.475 29.5 240.798 28.6458 241.881 26.9375C242.985 25.2292 243.537 23.4062 243.537 21.4688C243.537 19.5729 242.954 18.625 241.787 18.625C240.496 18.625 239.392 19.0312 238.475 19.8438C237.579 20.6562 236.84 21.7292 236.256 23.0625C235.673 24.3958 235.225 25.8438 234.912 27.4062C235.537 28.8021 236.537 29.5 237.912 29.5ZM234.975 50.4375C229.954 50.4375 226.34 48.9896 224.131 46.0938C221.923 43.1771 220.819 39.4792 220.819 35C220.819 28.3333 222.527 22.9167 225.944 18.75C229.381 14.5833 233.819 12.5 239.256 12.5C242.798 12.5 245.392 13.375 247.037 15.125C248.704 16.8542 249.537 18.9688 249.537 21.4688C249.537 25.1146 248.329 28.0625 245.912 30.3125C243.496 32.5417 241.027 33.6562 238.506 33.6562C236.715 33.6562 235.319 32.9792 234.319 31.625C234.256 32.3125 234.225 33.0312 234.225 33.7812C234.225 35.6354 234.433 37.3542 234.85 38.9375C235.621 41.9167 237.194 43.4062 239.569 43.4062C240.819 43.4062 242.079 43 243.35 42.1875C244.621 41.375 245.85 40.3229 247.037 39.0312C248.225 37.7188 249.329 36.3021 250.35 34.7812C251.392 33.2604 252.298 31.7604 253.069 30.2812C253.86 28.8021 254.496 27.4792 254.975 26.3125C255.412 25.2292 255.777 24.4375 256.069 23.9375C256.381 23.4375 256.642 23.125 256.85 23C257.079 22.8542 257.298 22.7812 257.506 22.7812C257.923 22.7812 258.131 23.0833 258.131 23.6875C258.131 24.3958 257.912 25.4271 257.475 26.7812C253.954 37.7812 249.444 44.875 243.944 48.0625C241.215 49.6458 238.225 50.4375 234.975 50.4375ZM261.3 50.5C258.383 50.5 256.279 48.5521 254.988 44.6562C253.967 41.5938 253.456 37.5521 253.456 32.5312V29.7812C253.498 26.3646 253.863 22.0521 254.55 16.8438C255.383 10.5938 256.321 6.30208 257.363 3.96875C258.279 1.88542 260.113 0.84375 262.863 0.84375C265.446 0.84375 267.04 1.875 267.644 3.9375C268.185 5.8125 268.456 8.78125 268.456 12.8438C268.456 16.6354 268.269 20.75 267.894 25.1875C267.227 32.6875 266.258 38.5521 264.988 42.7812C266.904 41.1354 268.967 38.5729 271.175 35.0938C273.383 31.5938 274.977 28.6667 275.956 26.3125C276.394 25.2292 276.758 24.4375 277.05 23.9375C277.363 23.4375 277.623 23.125 277.831 23C278.06 22.8542 278.279 22.7812 278.488 22.7812C278.904 22.7812 279.113 23.0833 279.113 23.6875C279.113 24.3958 278.894 25.4271 278.456 26.7812C275.769 35.1562 272.696 41.4792 269.238 45.75C266.675 48.9167 264.029 50.5 261.3 50.5Z" fill="white"/>
</svg>
